<?xml version="1.0" encoding="UTF-8"?>
<svg id="Layer_1" xmlns="http://www.w3.org/2000/svg" viewBox="0 0 160.51 188.47">
  <defs>
    <style>
      .cls-1 {
        opacity: .35;
      }

      .cls-2 {
        fill: #fff;
      }

      .cls-3 {
        fill: #27546d;
      }

      .cls-4 {
        fill: #dfe8ea;
      }
    </style>
  </defs>
  <g class="cls-1">
    <path class="cls-3" d="M66.88,159.72c-4.7-6.91-10.55-16.88-11.74-25.16-.76-5.35.08-9.75,1.25-13.07-5.29-6.01-12.46-14.8-12.76-27.03-.04-1.49-.09-2.6-.14-3.41-.73-.64-1.52-1.34-2.39-2.13-14.32-13.05-20.83-25.08-21.1-39.01-.01-.51,0-1.03.03-1.54l.02-.28c.04-.66.11-1.31.21-1.96,1.81-11.5,11.14-19.23,27.72-22.99,8.91-2.02,20.38-3.13,32.3-3.13s23.96,1.19,33.01,3.36c5.63,1.35,10.17,3.03,13.9,5.15,11.3,6.43,13.1,15.92,13.28,20.42.04.71.06,1.71-.04,2.94-.14,1.81-.53,3.59-1.15,5.29l-.08.23c-.23.62-.48,1.23-.77,1.83-1.34,2.78-7.56,13.38-12.54,21.78-3.54,5.97-7.09,10.16-9.97,13.23,8.99,25.1-5.47,39.56-13.47,47.56-.03.03-.06.06-.08.09,0,.09,0,.21.03.34.02.08.03.12.03.12,0,0-.06-.17-.13-.37,0,0,0,.01,0,.01,0,0,0,0,0-.01-.09-.28-.2-.61-.2-.61l-18.69,7.11-16.53,11.25Z"/>
    <path class="cls-2" d="M80.28,40c22.02,0,40.21,4.25,40.21,9.71,0,.22.03.34.01.62l-.08.23s-1.24,2.58-11.72,20.25c-9.3,15.7-18.6,14.52-12.99,26.75,6.87,14.99,1.54,21.17-7.38,30.09-9.29,9.29-4.91,20.81-4.91,20.81,0,0-7.7-11.31-8.47-16.74-.78-5.43,3.68-6.4,3.49-12.8-.19-6.4-14.56-14.78-14.8-24.96-.33-13.64-2.07-13.47-9.05-19.84-11.74-10.7-14.45-18.02-14.57-24.62l.02-.28c.83-5.28,18.77-9.23,40.26-9.23M80.28,0c-13.55,0-26.25,1.25-36.72,3.62-7.15,1.62-13.18,3.74-18.42,6.47C6.7,19.71,1.79,34.84.5,43.01c-.2,1.3-.35,2.61-.42,3.93l-.02.28c-.06,1.02-.08,2.04-.06,3.07.45,23.18,13.05,39.32,24.04,50.03,1.41,11.11,6.18,19.9,10.95,26.5-.25,3.24-.19,6.77.35,10.57,1.39,9.7,6.43,21,15,33.59,7.68,11.28,20.23,17.5,33.09,17.5,6.25,0,12.58-1.47,18.46-4.53,13.48-7.03,21.42-20.78,21.52-35.22,4.46-5.18,9.24-11.97,12.26-20.61,3.25-9.28,3.98-18.99,2.2-29.02,1.71-2.32,3.48-4.94,5.22-7.88,11.36-19.16,12.75-22.06,13.35-23.3.58-1.2,1.1-2.43,1.55-3.69l.08-.23c1.24-3.41,2.01-6.98,2.29-10.6.13-1.72.16-3.41.08-5.14-.52-15.25-9.17-29.05-23.37-37.13-5.39-3.07-11.65-5.43-19.15-7.22-10.68-2.55-23.71-3.9-37.66-3.9h0Z"/>
  </g>
  <path class="cls-3" d="M120.41,50.56l.08-.23c.02-.28-.01-.39-.01-.62,0-5.46-18.18-9.71-40.21-9.71s-39.43,3.95-40.26,9.23l-.02.28c.13,6.59,2.83,13.92,14.57,24.62,6.99,6.37,8.73,6.21,9.05,19.84.24,10.17,14.61,18.56,14.8,24.96.19,6.4-4.27,7.37-3.49,12.8.78,5.43,8.47,16.74,8.47,16.74,0,0-4.38-11.52,4.91-20.81,8.92-8.92,14.25-15.1,7.38-30.09-5.61-12.23,3.69-11.05,12.99-26.75,10.48-17.67,11.72-20.25,11.72-20.25Z"/>
  <path class="cls-4" d="M94.46,91.56c7.1-.42,10.63,5.83,3.96,8.21-3.57,1.31-7.43,1.24-10.94,2.48-7.73,2.74-13.17,2.78-20.66,2.64-5.19-.1-9.41-4.29-6.12-6.3.58-.36,1.18-.66,1.8-.92l.06.12c-.97.74-2.2,1.46-2.7,2.59-.23.97,1.92,1.16,2.6,1.23,0,0-.12,0-.12,0l5.5-.78,5.52-.68c3.67-.52,7.38-.79,11.03-1.44,3.66-.62,7.19-1.91,10.59-3.18,1.25-.47,2.52-.98,3.61-1.72.35-.22.57-.57.55-.6-.28-.56-1.38-.77-1.99-.96-.88-.25-1.79-.39-2.71-.55v-.13h0Z"/>
  <path class="cls-4" d="M88.07,133.07c-1.61-.12-5.04-.25-6.54-.76-2.2-.67-4.64-1.32-6.54-2.68-.74-.63-2.4-2.66-2.64-3.69-.06-.8,2.71-1.51,3.25-1.46,0,0,1.39-.25-.08.17-.37.11-.49.18-.72.55-.98,1.56,6.4,4.84,7.72,5.01,1.5.26,4.86,1.35,5.67.54.25-.25-.76-1.12-.89-1.49,0,0,1.78.66,2.25,1.06,1.78,1.53,1.83,3-1.48,2.75Z"/>
  <path class="cls-4" d="M116.56,59.79c1.09-.06,6.18-.15,5.63-1.71-.52-1.16-1.9-2.46-3.08-3.1-2.18-1.19-4.6-1.9-6.97-2.74-3.24-1.08-6.56-2.18-9.97-2.8-6.82-1.29-13.81-.9-20.72-.89-10.34.36-20.6.71-30.71,3.34,0,0-.1-.25-.1-.25,6.18-3.43,15.66-5.57,22.63-6.22,5.26-.41,10.54-.26,15.79.21,5.22.56,10.38,1.56,15.58,2.22,3.45.47,6.97.73,10.43,1.51,4.36,1.13,9.68,2.75,11.2,7.56.49,3.92-7.44,3.76-9.75,3.13,0,0,.04-.27.04-.27h0Z"/>
  <path class="cls-4" d="M52.14,74.96c-7.39,1.56-14.45-5.85-9.74-10.02,6.79-5.52,15.73-7.48,24.26-8.22,4.31-.31,15.46,1.7,19.75,2.19v.13c-8.53.65-17.05,1.17-25.41,2.97-4.07.88-11.05,2.99-13.87,6.21-1.06,1.26-1,4.2.64,5.5,1.2.89,2.84.99,4.35,1.11,0,0,.02.13.02.13h0Z"/>
  <path class="cls-4" d="M105.98,79.38c1.06-.06,2.56-1.24,3.13-2.2.23-1.35-.79-1.54-1.78-2.45-2.38-2.21-9.98-3.96-14.24-3.73-10.84.58-18.52.86-26.21,1.28,0,0-.02-.13-.02-.13,4.28-1.08,15.42-3.97,19.81-4.35,6.6-.54,13.28-.22,19.78,1.11,2.67.57,6.05,1.16,8.18,3.09.81.73,1.64.92,2.53,3.48s-10.24,4.59-11.97,4.03c-.01-.29.14-.06.04-.15,0,0,.54,0,.74.01Z"/>
  <path class="cls-4" d="M97.2,118.28c.81.12,3.97,2.15,3.52,3.17-.32.48-.93,1.36-3.14,1.95-1.95.52-2.73.34-4.76.51-3.09.23-7.93-1.83-10.35-3.76,2.96,1.21,6.16,1.36,9.31,1.33,1.96-.09,3.29.32,5.11-.48.33-.18.99-1.02,1.06-1.25.08-.61-.38-.97-.79-1.4,0,0,.03-.06.03-.06h0Z"/>
  <path class="cls-4" d="M83.34,81.67c-3.93.19-7.81.84-11.68,1.52-3.19.61-5.82.98-8.98,1.87-1.49.42-2.91.77-3.79,2.13-.05.12-1.24,2.04.15,2.27.95.16,1.92-.23,2.89-.35,0,0,.02.06.02.06-1.08.48-1.89,1.05-3.1,1.02-.19-.03-.06.19-3.29-.55-1.32-.3-1.27-2.14-.49-2.72,2.18-1.55,4.21-2.97,6.75-3.69,3.81-1.06,11.5-2.76,15.44-2.41,2.42.21,5.89.56,7.2.66l-1.12.18h0Z"/>
</svg>
